<?xml version="1.0" encoding="UTF-8" standalone="no"?>
<!DOCTYPE svg PUBLIC "-//W3C//DTD SVG 1.1//EN" "http://www.w3.org/Graphics/SVG/1.1/DTD/svg11.dtd">
<svg width="100%" height="100%" viewBox="0 0 250 180" version="1.1" xmlns="http://www.w3.org/2000/svg" xmlns:xlink="http://www.w3.org/1999/xlink" xml:space="preserve" xmlns:serif="http://www.serif.com/" style="fill-rule:evenodd;clip-rule:evenodd;stroke-linejoin:round;stroke-miterlimit:2;">
    <g transform="matrix(1,0,0,1,-248.349,-1633.36)">
        <g transform="matrix(1,0,0,1,-1529.49,1473.12)">
            <g transform="matrix(2.31495,0,0,2.31495,1488.06,-324.819)">
                <g>
                    <g transform="matrix(1.17432,0,0,1.17432,5.57378,-14.4377)">
                        <path d="M157.709,232.526C162.457,232.407 166.269,228.52 166.269,223.743L166.269,223.741C166.269,218.889 162.336,214.956 157.484,214.956L151.598,214.956L151.598,197.338L160.226,197.338C167.149,197.338 173.788,200.088 178.684,204.984C183.579,209.879 186.329,216.518 186.329,223.441L186.329,224.043C186.329,230.966 183.579,237.606 178.684,242.501C173.788,247.396 167.149,250.147 160.226,250.147L110.186,250.147L110.186,232.54L125.325,214.945L110.186,214.945L110.186,197.338L148.625,197.338L148.625,214.945L133.486,232.54" style="fill:currentColor;"/>
                    </g>
                    <g transform="matrix(1.23275,0,0,1.15174,-2.68865,-8.05072)">
                        <path d="M161.449,188.918C169.373,188.918 176.974,192.287 182.577,198.285C188.181,204.283 191.329,212.418 191.329,220.9L191.329,224.266C191.329,232.748 188.181,240.883 182.577,246.881C176.974,252.879 169.373,256.248 161.449,256.248L106.004,256.248C104.745,256.248 103.725,255.157 103.725,253.81L103.725,191.356C103.725,190.009 104.745,188.918 106.004,188.918L161.449,188.918ZM161.449,193.795L108.282,193.795L108.282,251.371L161.449,251.371C168.165,251.371 174.606,248.516 179.356,243.432C184.105,238.349 186.773,231.455 186.773,224.266L186.773,220.9C186.773,213.711 184.105,206.817 179.356,201.734C174.606,196.65 168.165,193.795 161.449,193.795Z" style="fill:currentColor;"/>
                    </g>
                </g>
            </g>
        </g>
    </g>
</svg>
